<mxfile host="Electron" agent="Mozilla/5.0 (Windows NT 10.0; Win64; x64) AppleWebKit/537.36 (KHTML, like Gecko) draw.io/24.7.17 Chrome/128.0.6613.36 Electron/32.0.1 Safari/537.36" version="24.7.17">
  <diagram name="Page-1" id="n89biHI8kfcjqRCVUZ1_">
    <mxGraphModel dx="2438" dy="2122" grid="1" gridSize="10" guides="1" tooltips="1" connect="1" arrows="1" fold="1" page="1" pageScale="1" pageWidth="850" pageHeight="1100" math="0" shadow="0">
      <root>
        <mxCell id="0" />
        <mxCell id="1" parent="0" />
        <mxCell id="NPTIdU-QoIQrwdJkLeSo-1" value="Clinic" style="rounded=0;whiteSpace=wrap;html=1;" parent="1" vertex="1">
          <mxGeometry x="365" y="370" width="120" height="60" as="geometry" />
        </mxCell>
        <mxCell id="NPTIdU-QoIQrwdJkLeSo-2" value="Staff" style="rounded=0;whiteSpace=wrap;html=1;" parent="1" vertex="1">
          <mxGeometry x="-130" y="370" width="120" height="60" as="geometry" />
        </mxCell>
        <mxCell id="NPTIdU-QoIQrwdJkLeSo-3" value="Pet" style="rounded=0;whiteSpace=wrap;html=1;" parent="1" vertex="1">
          <mxGeometry x="840" y="370" width="120" height="60" as="geometry" />
        </mxCell>
        <mxCell id="NPTIdU-QoIQrwdJkLeSo-5" value="Owner" style="rounded=0;whiteSpace=wrap;html=1;" parent="1" vertex="1">
          <mxGeometry x="365" y="650" width="120" height="60" as="geometry" />
        </mxCell>
        <mxCell id="NPTIdU-QoIQrwdJkLeSo-6" value="Examination" style="rounded=0;whiteSpace=wrap;html=1;" parent="1" vertex="1">
          <mxGeometry x="370" y="20" width="120" height="60" as="geometry" />
        </mxCell>
        <mxCell id="NPTIdU-QoIQrwdJkLeSo-8" value="" style="fontSize=12;html=1;endArrow=ERoneToMany;startArrow=none;rounded=0;entryX=1;entryY=0.5;entryDx=0;entryDy=0;exitX=0;exitY=0.5;exitDx=0;exitDy=0;endFill=0;startFill=0;" parent="1" source="C0Vpw6Wk0d-X_1QvhdIz-16" target="NPTIdU-QoIQrwdJkLeSo-2" edge="1">
          <mxGeometry width="100" height="100" relative="1" as="geometry">
            <mxPoint x="435" y="441" as="sourcePoint" />
            <mxPoint x="435" y="650" as="targetPoint" />
          </mxGeometry>
        </mxCell>
        <mxCell id="NPTIdU-QoIQrwdJkLeSo-9" value="" style="fontSize=12;html=1;endArrow=ERmandOne;startArrow=none;rounded=0;entryX=1;entryY=0.5;entryDx=0;entryDy=0;exitX=0;exitY=0.5;exitDx=0;exitDy=0;endFill=0;startFill=0;" parent="1" source="C0Vpw6Wk0d-X_1QvhdIz-24" edge="1">
          <mxGeometry width="100" height="100" relative="1" as="geometry">
            <mxPoint x="690" y="399.58" as="sourcePoint" />
            <mxPoint x="485" y="399.58" as="targetPoint" />
          </mxGeometry>
        </mxCell>
        <mxCell id="NPTIdU-QoIQrwdJkLeSo-10" value="" style="fontSize=12;html=1;endArrow=ERmandOne;startArrow=ERoneToMany;rounded=0;entryX=0.5;entryY=0;entryDx=0;entryDy=0;exitX=1;exitY=0.5;exitDx=0;exitDy=0;endFill=0;startFill=0;edgeStyle=orthogonalEdgeStyle;" parent="1" source="NPTIdU-QoIQrwdJkLeSo-6" target="NPTIdU-QoIQrwdJkLeSo-3" edge="1">
          <mxGeometry width="100" height="100" relative="1" as="geometry">
            <mxPoint x="700" y="409.58" as="sourcePoint" />
            <mxPoint x="495" y="409.58" as="targetPoint" />
            <Array as="points">
              <mxPoint x="900" y="50" />
            </Array>
          </mxGeometry>
        </mxCell>
        <mxCell id="NPTIdU-QoIQrwdJkLeSo-12" value="name" style="ellipse;whiteSpace=wrap;html=1;align=center;" parent="1" vertex="1">
          <mxGeometry x="500" y="300" width="100" height="40" as="geometry" />
        </mxCell>
        <mxCell id="NPTIdU-QoIQrwdJkLeSo-13" value="&lt;u&gt;&lt;b&gt;clinicNo&lt;/b&gt;&lt;/u&gt;" style="ellipse;whiteSpace=wrap;html=1;align=center;" parent="1" vertex="1">
          <mxGeometry x="260" y="300" width="100" height="40" as="geometry" />
        </mxCell>
        <mxCell id="NPTIdU-QoIQrwdJkLeSo-14" value="" style="endArrow=none;html=1;rounded=0;exitX=0.5;exitY=1;exitDx=0;exitDy=0;entryX=0.25;entryY=0;entryDx=0;entryDy=0;" parent="1" source="NPTIdU-QoIQrwdJkLeSo-13" target="NPTIdU-QoIQrwdJkLeSo-1" edge="1">
          <mxGeometry relative="1" as="geometry">
            <mxPoint x="470" y="270" as="sourcePoint" />
            <mxPoint x="630" y="270" as="targetPoint" />
          </mxGeometry>
        </mxCell>
        <mxCell id="NPTIdU-QoIQrwdJkLeSo-15" value="" style="endArrow=none;html=1;rounded=0;exitX=0.5;exitY=1;exitDx=0;exitDy=0;entryX=0.75;entryY=0;entryDx=0;entryDy=0;" parent="1" source="NPTIdU-QoIQrwdJkLeSo-12" target="NPTIdU-QoIQrwdJkLeSo-1" edge="1">
          <mxGeometry relative="1" as="geometry">
            <mxPoint x="350" y="310" as="sourcePoint" />
            <mxPoint x="405" y="380" as="targetPoint" />
          </mxGeometry>
        </mxCell>
        <mxCell id="NPTIdU-QoIQrwdJkLeSo-16" value="&lt;u&gt;&lt;b&gt;staffNo&lt;/b&gt;&lt;/u&gt;" style="ellipse;whiteSpace=wrap;html=1;align=center;" parent="1" vertex="1">
          <mxGeometry x="-320" y="380" width="100" height="40" as="geometry" />
        </mxCell>
        <mxCell id="NPTIdU-QoIQrwdJkLeSo-17" value="address" style="ellipse;whiteSpace=wrap;html=1;align=center;" parent="1" vertex="1">
          <mxGeometry x="-300" y="460" width="100" height="40" as="geometry" />
        </mxCell>
        <mxCell id="NPTIdU-QoIQrwdJkLeSo-18" value="DOB" style="ellipse;whiteSpace=wrap;html=1;align=center;" parent="1" vertex="1">
          <mxGeometry x="-200" y="510" width="100" height="40" as="geometry" />
        </mxCell>
        <mxCell id="NPTIdU-QoIQrwdJkLeSo-19" value="name" style="ellipse;whiteSpace=wrap;html=1;align=center;" parent="1" vertex="1">
          <mxGeometry x="-290" y="280" width="100" height="40" as="geometry" />
        </mxCell>
        <mxCell id="NPTIdU-QoIQrwdJkLeSo-21" value="position" style="ellipse;whiteSpace=wrap;html=1;align=center;" parent="1" vertex="1">
          <mxGeometry x="-10" y="290" width="100" height="40" as="geometry" />
        </mxCell>
        <mxCell id="NPTIdU-QoIQrwdJkLeSo-22" value="" style="endArrow=none;html=1;rounded=0;exitX=1;exitY=0.5;exitDx=0;exitDy=0;" parent="1" source="NPTIdU-QoIQrwdJkLeSo-16" edge="1">
          <mxGeometry relative="1" as="geometry">
            <mxPoint x="180" y="310" as="sourcePoint" />
            <mxPoint x="-130" y="400" as="targetPoint" />
          </mxGeometry>
        </mxCell>
        <mxCell id="NPTIdU-QoIQrwdJkLeSo-23" value="" style="endArrow=none;html=1;rounded=0;exitX=0.7;exitY=1;exitDx=0;exitDy=0;exitPerimeter=0;entryX=0;entryY=0.25;entryDx=0;entryDy=0;" parent="1" source="NPTIdU-QoIQrwdJkLeSo-19" target="NPTIdU-QoIQrwdJkLeSo-2" edge="1">
          <mxGeometry relative="1" as="geometry">
            <mxPoint x="-210" y="410" as="sourcePoint" />
            <mxPoint x="-120" y="410" as="targetPoint" />
          </mxGeometry>
        </mxCell>
        <mxCell id="NPTIdU-QoIQrwdJkLeSo-24" value="" style="endArrow=none;html=1;rounded=0;entryX=0;entryY=0.75;entryDx=0;entryDy=0;" parent="1" source="NPTIdU-QoIQrwdJkLeSo-17" target="NPTIdU-QoIQrwdJkLeSo-2" edge="1">
          <mxGeometry relative="1" as="geometry">
            <mxPoint x="-210" y="330" as="sourcePoint" />
            <mxPoint x="-120" y="395" as="targetPoint" />
          </mxGeometry>
        </mxCell>
        <mxCell id="NPTIdU-QoIQrwdJkLeSo-26" value="" style="endArrow=none;html=1;rounded=0;exitX=0.5;exitY=1;exitDx=0;exitDy=0;entryX=0.5;entryY=0;entryDx=0;entryDy=0;" parent="1" edge="1" target="NPTIdU-QoIQrwdJkLeSo-18">
          <mxGeometry relative="1" as="geometry">
            <mxPoint x="-100.28" y="430" as="sourcePoint" />
            <mxPoint x="-100" y="490" as="targetPoint" />
          </mxGeometry>
        </mxCell>
        <mxCell id="NPTIdU-QoIQrwdJkLeSo-27" value="" style="endArrow=none;html=1;rounded=0;" parent="1" source="NPTIdU-QoIQrwdJkLeSo-21" target="NPTIdU-QoIQrwdJkLeSo-2" edge="1">
          <mxGeometry relative="1" as="geometry">
            <mxPoint x="-90.28" y="440" as="sourcePoint" />
            <mxPoint x="-90" y="500" as="targetPoint" />
          </mxGeometry>
        </mxCell>
        <mxCell id="NPTIdU-QoIQrwdJkLeSo-28" value="&lt;u&gt;petNo&lt;/u&gt;" style="ellipse;whiteSpace=wrap;html=1;align=center;" parent="1" vertex="1">
          <mxGeometry x="790" y="250" width="100" height="40" as="geometry" />
        </mxCell>
        <mxCell id="NPTIdU-QoIQrwdJkLeSo-29" value="name" style="ellipse;whiteSpace=wrap;html=1;align=center;" parent="1" vertex="1">
          <mxGeometry x="930" y="250" width="100" height="40" as="geometry" />
        </mxCell>
        <mxCell id="NPTIdU-QoIQrwdJkLeSo-30" value="" style="endArrow=none;html=1;rounded=0;exitX=0.5;exitY=1;exitDx=0;exitDy=0;entryX=0.25;entryY=0;entryDx=0;entryDy=0;" parent="1" target="NPTIdU-QoIQrwdJkLeSo-3" edge="1">
          <mxGeometry relative="1" as="geometry">
            <mxPoint x="840" y="290" as="sourcePoint" />
            <mxPoint x="895" y="360" as="targetPoint" />
          </mxGeometry>
        </mxCell>
        <mxCell id="NPTIdU-QoIQrwdJkLeSo-31" value="" style="endArrow=none;html=1;rounded=0;exitX=0.5;exitY=1;exitDx=0;exitDy=0;" parent="1" source="NPTIdU-QoIQrwdJkLeSo-29" target="NPTIdU-QoIQrwdJkLeSo-3" edge="1">
          <mxGeometry relative="1" as="geometry">
            <mxPoint x="850" y="300" as="sourcePoint" />
            <mxPoint x="880" y="380" as="targetPoint" />
          </mxGeometry>
        </mxCell>
        <mxCell id="NPTIdU-QoIQrwdJkLeSo-45" value="name" style="ellipse;whiteSpace=wrap;html=1;align=center;" parent="1" vertex="1">
          <mxGeometry x="240" y="740" width="100" height="40" as="geometry" />
        </mxCell>
        <mxCell id="NPTIdU-QoIQrwdJkLeSo-46" value="address" style="ellipse;whiteSpace=wrap;html=1;align=center;" parent="1" vertex="1">
          <mxGeometry x="360" y="770" width="100" height="40" as="geometry" />
        </mxCell>
        <mxCell id="NPTIdU-QoIQrwdJkLeSo-47" value="telephone" style="ellipse;whiteSpace=wrap;html=1;align=center;" parent="1" vertex="1">
          <mxGeometry x="485" y="770" width="100" height="40" as="geometry" />
        </mxCell>
        <mxCell id="NPTIdU-QoIQrwdJkLeSo-48" value="&lt;u&gt;&lt;b&gt;ownerNo&lt;/b&gt;&lt;/u&gt;" style="ellipse;whiteSpace=wrap;html=1;align=center;" parent="1" vertex="1">
          <mxGeometry x="180" y="660" width="100" height="40" as="geometry" />
        </mxCell>
        <mxCell id="NPTIdU-QoIQrwdJkLeSo-49" value="" style="endArrow=none;html=1;rounded=0;exitX=1;exitY=0.5;exitDx=0;exitDy=0;entryX=0;entryY=0.5;entryDx=0;entryDy=0;" parent="1" target="NPTIdU-QoIQrwdJkLeSo-5" edge="1" source="NPTIdU-QoIQrwdJkLeSo-48">
          <mxGeometry relative="1" as="geometry">
            <mxPoint x="300" y="699.82" as="sourcePoint" />
            <mxPoint x="340" y="700" as="targetPoint" />
          </mxGeometry>
        </mxCell>
        <mxCell id="NPTIdU-QoIQrwdJkLeSo-50" value="" style="endArrow=none;html=1;rounded=0;exitX=0.5;exitY=0;exitDx=0;exitDy=0;entryX=-0.004;entryY=0.835;entryDx=0;entryDy=0;entryPerimeter=0;" parent="1" source="NPTIdU-QoIQrwdJkLeSo-45" edge="1">
          <mxGeometry relative="1" as="geometry">
            <mxPoint x="310" y="709.82" as="sourcePoint" />
            <mxPoint x="375" y="710" as="targetPoint" />
          </mxGeometry>
        </mxCell>
        <mxCell id="NPTIdU-QoIQrwdJkLeSo-51" value="" style="endArrow=none;html=1;rounded=0;exitX=0.5;exitY=0;exitDx=0;exitDy=0;entryX=0.5;entryY=1;entryDx=0;entryDy=0;" parent="1" source="NPTIdU-QoIQrwdJkLeSo-46" target="NPTIdU-QoIQrwdJkLeSo-5" edge="1">
          <mxGeometry relative="1" as="geometry">
            <mxPoint x="360" y="770" as="sourcePoint" />
            <mxPoint x="470" y="712" as="targetPoint" />
          </mxGeometry>
        </mxCell>
        <mxCell id="NPTIdU-QoIQrwdJkLeSo-52" value="" style="endArrow=none;html=1;rounded=0;exitX=1;exitY=0.5;exitDx=0;exitDy=0;entryX=0.5;entryY=0;entryDx=0;entryDy=0;" parent="1" edge="1" target="NPTIdU-QoIQrwdJkLeSo-47">
          <mxGeometry relative="1" as="geometry">
            <mxPoint x="485" y="699.69" as="sourcePoint" />
            <mxPoint x="550" y="699.87" as="targetPoint" />
          </mxGeometry>
        </mxCell>
        <mxCell id="C0Vpw6Wk0d-X_1QvhdIz-1" value="&lt;u&gt;&lt;b&gt;examNo&lt;/b&gt;&lt;/u&gt;" style="ellipse;whiteSpace=wrap;html=1;align=center;" parent="1" vertex="1">
          <mxGeometry x="220" y="-90" width="100" height="40" as="geometry" />
        </mxCell>
        <mxCell id="C0Vpw6Wk0d-X_1QvhdIz-2" value="compliment&amp;nbsp;" style="ellipse;whiteSpace=wrap;html=1;align=center;" parent="1" vertex="1">
          <mxGeometry x="290" y="-140" width="100" height="40" as="geometry" />
        </mxCell>
        <mxCell id="C0Vpw6Wk0d-X_1QvhdIz-3" value="description&amp;nbsp;" style="ellipse;whiteSpace=wrap;html=1;align=center;" parent="1" vertex="1">
          <mxGeometry x="540" y="-110" width="100" height="40" as="geometry" />
        </mxCell>
        <mxCell id="C0Vpw6Wk0d-X_1QvhdIz-4" value="date" style="ellipse;whiteSpace=wrap;html=1;align=center;" parent="1" vertex="1">
          <mxGeometry x="585" y="-60" width="100" height="40" as="geometry" />
        </mxCell>
        <mxCell id="C0Vpw6Wk0d-X_1QvhdIz-6" value="" style="endArrow=none;html=1;rounded=0;entryX=0.162;entryY=-0.003;entryDx=0;entryDy=0;entryPerimeter=0;exitX=0.5;exitY=1;exitDx=0;exitDy=0;" parent="1" source="C0Vpw6Wk0d-X_1QvhdIz-1" target="NPTIdU-QoIQrwdJkLeSo-6" edge="1">
          <mxGeometry relative="1" as="geometry">
            <mxPoint x="109" y="-81" as="sourcePoint" />
            <mxPoint x="55" y="-15" as="targetPoint" />
          </mxGeometry>
        </mxCell>
        <mxCell id="C0Vpw6Wk0d-X_1QvhdIz-7" value="" style="endArrow=none;html=1;rounded=0;entryX=0.539;entryY=-0.006;entryDx=0;entryDy=0;exitX=0.5;exitY=1;exitDx=0;exitDy=0;entryPerimeter=0;" parent="1" source="C0Vpw6Wk0d-X_1QvhdIz-2" target="NPTIdU-QoIQrwdJkLeSo-6" edge="1">
          <mxGeometry relative="1" as="geometry">
            <mxPoint x="330" y="-60" as="sourcePoint" />
            <mxPoint x="399" y="30" as="targetPoint" />
          </mxGeometry>
        </mxCell>
        <mxCell id="C0Vpw6Wk0d-X_1QvhdIz-8" value="" style="endArrow=none;html=1;rounded=0;entryX=0.75;entryY=0;entryDx=0;entryDy=0;exitX=0.334;exitY=0.961;exitDx=0;exitDy=0;exitPerimeter=0;" parent="1" source="C0Vpw6Wk0d-X_1QvhdIz-3" target="NPTIdU-QoIQrwdJkLeSo-6" edge="1">
          <mxGeometry relative="1" as="geometry">
            <mxPoint x="330" y="-60" as="sourcePoint" />
            <mxPoint x="399" y="30" as="targetPoint" />
          </mxGeometry>
        </mxCell>
        <mxCell id="C0Vpw6Wk0d-X_1QvhdIz-9" value="" style="endArrow=none;html=1;rounded=0;entryX=1;entryY=0.25;entryDx=0;entryDy=0;" parent="1" source="C0Vpw6Wk0d-X_1QvhdIz-4" target="NPTIdU-QoIQrwdJkLeSo-6" edge="1">
          <mxGeometry relative="1" as="geometry">
            <mxPoint x="548" y="-62" as="sourcePoint" />
            <mxPoint x="470" y="30" as="targetPoint" />
          </mxGeometry>
        </mxCell>
        <mxCell id="C0Vpw6Wk0d-X_1QvhdIz-17" value="" style="fontSize=12;html=1;endArrow=none;startArrow=ERmandOne;rounded=0;entryX=1;entryY=0.5;entryDx=0;entryDy=0;exitX=0;exitY=0.5;exitDx=0;exitDy=0;endFill=0;" parent="1" source="NPTIdU-QoIQrwdJkLeSo-1" target="C0Vpw6Wk0d-X_1QvhdIz-16" edge="1">
          <mxGeometry width="100" height="100" relative="1" as="geometry">
            <mxPoint x="365" y="400" as="sourcePoint" />
            <mxPoint x="-10" y="400" as="targetPoint" />
          </mxGeometry>
        </mxCell>
        <mxCell id="C0Vpw6Wk0d-X_1QvhdIz-16" value="has" style="rhombus;whiteSpace=wrap;html=1;" parent="1" vertex="1">
          <mxGeometry x="120" y="360" width="80" height="80" as="geometry" />
        </mxCell>
        <mxCell id="C0Vpw6Wk0d-X_1QvhdIz-25" value="" style="fontSize=12;html=1;endArrow=none;startArrow=ERoneToMany;rounded=0;entryX=1;entryY=0.5;entryDx=0;entryDy=0;exitX=0;exitY=0.5;exitDx=0;exitDy=0;endFill=0;startFill=0;" parent="1" source="NPTIdU-QoIQrwdJkLeSo-3" target="C0Vpw6Wk0d-X_1QvhdIz-24" edge="1">
          <mxGeometry width="100" height="100" relative="1" as="geometry">
            <mxPoint x="840" y="400" as="sourcePoint" />
            <mxPoint x="485" y="399.58" as="targetPoint" />
          </mxGeometry>
        </mxCell>
        <mxCell id="C0Vpw6Wk0d-X_1QvhdIz-24" value="register" style="rhombus;whiteSpace=wrap;html=1;" parent="1" vertex="1">
          <mxGeometry x="620" y="360" width="80" height="80" as="geometry" />
        </mxCell>
        <mxCell id="rMRBB3-xKRq9xN1ANCFX-3" value="" style="fontSize=12;html=1;endArrow=ERoneToMany;startArrow=ERmandOne;rounded=0;exitX=1;exitY=0.5;exitDx=0;exitDy=0;endFill=0;startFill=0;edgeStyle=orthogonalEdgeStyle;entryX=0.488;entryY=1.044;entryDx=0;entryDy=0;entryPerimeter=0;" edge="1" parent="1" target="NPTIdU-QoIQrwdJkLeSo-3">
          <mxGeometry width="100" height="100" relative="1" as="geometry">
            <mxPoint x="485" y="680" as="sourcePoint" />
            <mxPoint x="890" y="470" as="targetPoint" />
            <Array as="points">
              <mxPoint x="899" y="680" />
            </Array>
          </mxGeometry>
        </mxCell>
        <mxCell id="rMRBB3-xKRq9xN1ANCFX-4" value="has" style="rhombus;whiteSpace=wrap;html=1;rotation=0;" vertex="1" parent="1">
          <mxGeometry x="760" y="10" width="75" height="80" as="geometry" />
        </mxCell>
        <mxCell id="C0Vpw6Wk0d-X_1QvhdIz-20" value="belongs" style="rhombus;whiteSpace=wrap;html=1;rotation=0;" parent="1" vertex="1">
          <mxGeometry x="715" y="640" width="75" height="80" as="geometry" />
        </mxCell>
        <mxCell id="rMRBB3-xKRq9xN1ANCFX-6" value="address" style="ellipse;whiteSpace=wrap;html=1;align=center;" vertex="1" parent="1">
          <mxGeometry x="325" y="250" width="100" height="40" as="geometry" />
        </mxCell>
        <mxCell id="rMRBB3-xKRq9xN1ANCFX-7" value="telephone" style="ellipse;whiteSpace=wrap;html=1;align=center;" vertex="1" parent="1">
          <mxGeometry x="440" y="250" width="100" height="40" as="geometry" />
        </mxCell>
        <mxCell id="rMRBB3-xKRq9xN1ANCFX-8" value="" style="endArrow=none;html=1;rounded=0;exitX=0.5;exitY=1;exitDx=0;exitDy=0;entryX=0.388;entryY=0.005;entryDx=0;entryDy=0;entryPerimeter=0;" edge="1" parent="1" source="rMRBB3-xKRq9xN1ANCFX-6" target="NPTIdU-QoIQrwdJkLeSo-1">
          <mxGeometry relative="1" as="geometry">
            <mxPoint x="320" y="330" as="sourcePoint" />
            <mxPoint x="405" y="380" as="targetPoint" />
          </mxGeometry>
        </mxCell>
        <mxCell id="rMRBB3-xKRq9xN1ANCFX-9" value="" style="endArrow=none;html=1;rounded=0;exitX=0.5;exitY=1;exitDx=0;exitDy=0;entryX=0.592;entryY=-0.005;entryDx=0;entryDy=0;entryPerimeter=0;" edge="1" parent="1" source="rMRBB3-xKRq9xN1ANCFX-7" target="NPTIdU-QoIQrwdJkLeSo-1">
          <mxGeometry relative="1" as="geometry">
            <mxPoint x="370" y="240" as="sourcePoint" />
            <mxPoint x="422" y="380" as="targetPoint" />
          </mxGeometry>
        </mxCell>
        <mxCell id="rMRBB3-xKRq9xN1ANCFX-10" value="DOB" style="ellipse;whiteSpace=wrap;html=1;align=center;" vertex="1" parent="1">
          <mxGeometry x="1040" y="380" width="100" height="40" as="geometry" />
        </mxCell>
        <mxCell id="rMRBB3-xKRq9xN1ANCFX-11" value="breed" style="ellipse;whiteSpace=wrap;html=1;align=center;" vertex="1" parent="1">
          <mxGeometry x="1020" y="300" width="100" height="40" as="geometry" />
        </mxCell>
        <mxCell id="rMRBB3-xKRq9xN1ANCFX-12" value="species" style="ellipse;whiteSpace=wrap;html=1;align=center;" vertex="1" parent="1">
          <mxGeometry x="1030" y="450" width="100" height="40" as="geometry" />
        </mxCell>
        <mxCell id="rMRBB3-xKRq9xN1ANCFX-13" value="color" style="ellipse;whiteSpace=wrap;html=1;align=center;" vertex="1" parent="1">
          <mxGeometry x="920" y="490" width="100" height="40" as="geometry" />
        </mxCell>
        <mxCell id="rMRBB3-xKRq9xN1ANCFX-14" value="" style="endArrow=none;html=1;rounded=0;entryX=0.5;entryY=0;entryDx=0;entryDy=0;" edge="1" parent="1" source="NPTIdU-QoIQrwdJkLeSo-3" target="rMRBB3-xKRq9xN1ANCFX-13">
          <mxGeometry relative="1" as="geometry">
            <mxPoint x="850" y="300" as="sourcePoint" />
            <mxPoint x="880" y="380" as="targetPoint" />
          </mxGeometry>
        </mxCell>
        <mxCell id="rMRBB3-xKRq9xN1ANCFX-15" value="" style="endArrow=none;html=1;rounded=0;entryX=0;entryY=0.5;entryDx=0;entryDy=0;exitX=1;exitY=0.5;exitDx=0;exitDy=0;" edge="1" parent="1" source="NPTIdU-QoIQrwdJkLeSo-3" target="rMRBB3-xKRq9xN1ANCFX-10">
          <mxGeometry relative="1" as="geometry">
            <mxPoint x="933" y="440" as="sourcePoint" />
            <mxPoint x="980" y="500" as="targetPoint" />
          </mxGeometry>
        </mxCell>
        <mxCell id="rMRBB3-xKRq9xN1ANCFX-16" value="" style="endArrow=none;html=1;rounded=0;entryX=0;entryY=1;entryDx=0;entryDy=0;exitX=1;exitY=0.25;exitDx=0;exitDy=0;" edge="1" parent="1" source="NPTIdU-QoIQrwdJkLeSo-3" target="rMRBB3-xKRq9xN1ANCFX-11">
          <mxGeometry relative="1" as="geometry">
            <mxPoint x="970" y="410" as="sourcePoint" />
            <mxPoint x="1050" y="410" as="targetPoint" />
          </mxGeometry>
        </mxCell>
        <mxCell id="rMRBB3-xKRq9xN1ANCFX-17" value="" style="endArrow=none;html=1;rounded=0;entryX=0.065;entryY=0.258;entryDx=0;entryDy=0;exitX=1;exitY=0.75;exitDx=0;exitDy=0;entryPerimeter=0;" edge="1" parent="1" source="NPTIdU-QoIQrwdJkLeSo-3" target="rMRBB3-xKRq9xN1ANCFX-12">
          <mxGeometry relative="1" as="geometry">
            <mxPoint x="970" y="395" as="sourcePoint" />
            <mxPoint x="1045" y="344" as="targetPoint" />
          </mxGeometry>
        </mxCell>
        <mxCell id="rMRBB3-xKRq9xN1ANCFX-18" value="actionTaken" style="ellipse;whiteSpace=wrap;html=1;align=center;" vertex="1" parent="1">
          <mxGeometry x="420" y="-150" width="100" height="40" as="geometry" />
        </mxCell>
        <mxCell id="rMRBB3-xKRq9xN1ANCFX-19" value="" style="endArrow=none;html=1;rounded=0;entryX=0.671;entryY=0.006;entryDx=0;entryDy=0;entryPerimeter=0;exitX=0.5;exitY=1;exitDx=0;exitDy=0;" edge="1" parent="1" source="rMRBB3-xKRq9xN1ANCFX-18" target="NPTIdU-QoIQrwdJkLeSo-6">
          <mxGeometry relative="1" as="geometry">
            <mxPoint x="520" y="-130" as="sourcePoint" />
            <mxPoint x="399" y="30" as="targetPoint" />
          </mxGeometry>
        </mxCell>
        <mxCell id="rMRBB3-xKRq9xN1ANCFX-20" value="telephone" style="ellipse;whiteSpace=wrap;html=1;align=center;" vertex="1" parent="1">
          <mxGeometry x="-70" y="510" width="100" height="40" as="geometry" />
        </mxCell>
        <mxCell id="rMRBB3-xKRq9xN1ANCFX-21" value="" style="endArrow=none;html=1;rounded=0;exitX=0.75;exitY=1;exitDx=0;exitDy=0;entryX=0.5;entryY=0;entryDx=0;entryDy=0;" edge="1" parent="1" source="NPTIdU-QoIQrwdJkLeSo-2" target="rMRBB3-xKRq9xN1ANCFX-20">
          <mxGeometry relative="1" as="geometry">
            <mxPoint x="-90" y="310" as="sourcePoint" />
            <mxPoint x="-90" y="380" as="targetPoint" />
          </mxGeometry>
        </mxCell>
        <mxCell id="rMRBB3-xKRq9xN1ANCFX-22" value="" style="fontSize=12;html=1;endArrow=ERmandOne;startArrow=ERoneToMany;rounded=0;entryX=0.417;entryY=0;entryDx=0;entryDy=0;exitX=0;exitY=0.5;exitDx=0;exitDy=0;endFill=0;startFill=0;entryPerimeter=0;edgeStyle=orthogonalEdgeStyle;" edge="1" parent="1" source="NPTIdU-QoIQrwdJkLeSo-6" target="NPTIdU-QoIQrwdJkLeSo-2">
          <mxGeometry width="100" height="100" relative="1" as="geometry">
            <mxPoint x="-190.07000000000005" as="sourcePoint" />
            <mxPoint x="219.92999999999995" y="320" as="targetPoint" />
          </mxGeometry>
        </mxCell>
        <mxCell id="rMRBB3-xKRq9xN1ANCFX-23" value="conduct" style="rhombus;whiteSpace=wrap;html=1;" vertex="1" parent="1">
          <mxGeometry y="10" width="80" height="80" as="geometry" />
        </mxCell>
      </root>
    </mxGraphModel>
  </diagram>
</mxfile>
